<?xml version="1.0" encoding="utf-8"?>
<!-- Generator: Adobe Illustrator 17.0.0, SVG Export Plug-In . SVG Version: 6.00 Build 0)  -->
<!DOCTYPE svg PUBLIC "-//W3C//DTD SVG 1.1//EN" "http://www.w3.org/Graphics/SVG/1.1/DTD/svg11.dtd">
<svg version="1.1" id="Слой_1" xmlns="http://www.w3.org/2000/svg" xmlns:xlink="http://www.w3.org/1999/xlink" x="0px" y="0px"
	 width="20px" height="20px" viewBox="0 0 20 20" enable-background="new 0 0 20 20" xml:space="preserve">
<path fill-rule="evenodd" clip-rule="evenodd" fill="#292929" d="M11.106,14.452c0.105-0.345,0.38-0.7,0.521-1.13
	c0.192-0.586,0.153-0.803,0.166-1.43c1.359,0.284,1.571,0.124,2.654-0.352c0.139,0.185,0.556,3.22,0.591,3.691
	c-0.151,0.096-0.3,0.135-0.456,0.249c-0.2,0.147-0.19,0.227-0.363,0.369L11.106,14.452L11.106,14.452z M7.723,6.859
	c0.183,0.127,1.023,1.302,1.244,1.6l1.851,2.48c0.474,0.649,0.761,1.149,0.449,2.247c-0.054,0.19-0.12,0.362-0.207,0.533
	c-0.043,0.084-0.07,0.134-0.125,0.218c-0.052,0.08-0.008,0.023-0.072,0.101c-0.008,0.01-0.019,0.023-0.027,0.032l-0.06,0.063
	c-0.007,0.007-0.021,0.021-0.032,0.031c-0.072-0.067-0.097-0.093-0.171-0.188L8.015,10.55C7.553,9.922,7.116,9.368,6.647,8.724
	C6.266,8.2,7.429,7.134,7.723,6.859L7.723,6.859z M8.032,6.546c0.28-0.103,1.776-1.143,2.14-0.777l0.678,0.919
	c0.418,0.57,3.19,4.2,3.354,4.538c-0.665,0.368-1.545,0.534-2.378,0.239C11.4,11.314,10.774,10.3,10.48,9.908
	C10.062,9.35,9.669,8.822,9.264,8.275C9.066,8.008,8.096,6.779,8.032,6.546L8.032,6.546z M9.119,5.208
	C8.803,5.33,8.072,5.703,7.877,5.737C7.766,5.902,7.495,6.066,7.338,6.183C6.719,6.644,6.483,7.113,6.121,7.7L6.013,7.842
	C5.762,7.578,5.511,7.242,5.303,6.91c0.15-0.828,1.279-1.856,1.843-2.184C7.478,4.526,8.004,4.227,8.45,4.152l0.413-0.095
	c0.159,0.15,0.745,0.896,0.765,1.049L9.119,5.208L9.119,5.208z M4.78,6.167C4.534,4.711,6.818,2.83,8.351,3.436
	c-0.181,0.124-1.87,0.42-2.956,1.83C5.167,5.561,4.873,6.118,4.78,6.167L4.78,6.167z M10.017,14.759
	c0.326,0.448,0.444,0.405,1.128,0.697c1.527,0.652,3.589,1.496,5.049,2.177c-0.113-1.662-0.527-4.427-0.771-6.174
	c-0.094-0.671-5.954-8.407-6.477-8.792c-1.807-1.328-6.424,2.044-4.8,4.229c0.397,0.534,0.718,0.967,1.12,1.502
	C10.797,15.753,5.661,8.779,10.017,14.759L10.017,14.759z"/>
</svg>
