<?xml version="1.0" encoding="utf-8"?>
<!-- Generator: Adobe Illustrator 17.0.0, SVG Export Plug-In . SVG Version: 6.00 Build 0)  -->
<!DOCTYPE svg PUBLIC "-//W3C//DTD SVG 1.1//EN" "http://www.w3.org/Graphics/SVG/1.1/DTD/svg11.dtd">
<svg version="1.1" id="Слой_1" xmlns="http://www.w3.org/2000/svg" xmlns:xlink="http://www.w3.org/1999/xlink" x="0px" y="0px"
	 width="20px" height="20px" viewBox="0 0 20 20" enable-background="new 0 0 20 20" xml:space="preserve">
<g>
	<path d="M8.416,14.913l-4.227-2.847V8.142l4.227-3.111V14.913z M5.305,11.472l1.994,1.343V7.24L5.305,8.707V11.472z"/>
	<path d="M10.73,13.857l-0.784-0.795c0.043-0.043,1.097-1.127,1.097-3.062c0-1.959-1.086-3.051-1.097-3.062l0.784-0.795
		C10.789,6.2,12.159,7.579,12.159,10S10.789,13.8,10.73,13.857z"/>
	<path d="M13.324,16.756l-0.785-0.794c0.022-0.022,2.156-2.193,2.156-5.962c0-3.793-2.133-5.94-2.155-5.961l0.784-0.795
		c0.101,0.1,2.488,2.5,2.488,6.756S13.425,16.656,13.324,16.756z"/>
</g>
</svg>
