<?xml version="1.0" encoding="utf-8"?>
<!-- Generator: Adobe Illustrator 17.0.0, SVG Export Plug-In . SVG Version: 6.00 Build 0)  -->
<!DOCTYPE svg PUBLIC "-//W3C//DTD SVG 1.1//EN" "http://www.w3.org/Graphics/SVG/1.1/DTD/svg11.dtd">
<svg version="1.1" id="Слой_1" xmlns="http://www.w3.org/2000/svg" xmlns:xlink="http://www.w3.org/1999/xlink" x="0px" y="0px"
	 width="20px" height="20px" viewBox="0 0 20 20" enable-background="new 0 0 20 20" xml:space="preserve">
<path fill="#292929" d="M18.328,4.651c-0.024-0.028-0.063-0.038-0.097-0.022c-0.499,0.221-1.024,0.381-1.565,0.475
	c0.574-0.432,1.002-1.03,1.221-1.716c0.011-0.033,0-0.069-0.027-0.09c-0.027-0.021-0.065-0.024-0.094-0.006
	c-0.647,0.384-1.347,0.654-2.083,0.804c-0.652-0.676-1.562-1.063-2.504-1.063c-1.916,0-3.474,1.558-3.474,3.474
	c0,0.232,0.022,0.461,0.067,0.684C7.119,7.025,4.637,5.751,2.951,3.682C2.933,3.661,2.907,3.649,2.88,3.652
	C2.853,3.654,2.828,3.669,2.815,3.693c-0.308,0.528-0.47,1.132-0.47,1.746c0,1.065,0.484,2.061,1.308,2.718
	C3.228,8.106,2.814,7.973,2.44,7.766c-0.025-0.014-0.056-0.014-0.081,0C2.333,7.78,2.317,7.807,2.317,7.836l0,0.044
	c0,1.529,1.008,2.873,2.442,3.319c-0.378,0.061-0.77,0.057-1.155-0.017c-0.028-0.005-0.058,0.005-0.078,0.027
	c-0.019,0.022-0.026,0.052-0.017,0.08c0.43,1.342,1.625,2.284,3.016,2.401c-1.16,0.85-2.532,1.298-3.981,1.298
	c-0.267,0-0.536-0.016-0.799-0.047c-0.038-0.004-0.075,0.018-0.088,0.054c-0.013,0.036,0.001,0.077,0.033,0.098
	c1.568,1.005,3.381,1.537,5.243,1.537c6.091,0,9.732-4.948,9.732-9.732c0-0.133-0.003-0.266-0.008-0.398
	c0.657-0.481,1.221-1.069,1.676-1.75C18.354,4.719,18.352,4.679,18.328,4.651z"/>
</svg>
