<?xml version="1.0" encoding="utf-8"?>
<!-- Generator: Adobe Illustrator 17.0.0, SVG Export Plug-In . SVG Version: 6.00 Build 0)  -->
<!DOCTYPE svg PUBLIC "-//W3C//DTD SVG 1.1//EN" "http://www.w3.org/Graphics/SVG/1.1/DTD/svg11.dtd">
<svg version="1.1" id="Слой_1" xmlns="http://www.w3.org/2000/svg" xmlns:xlink="http://www.w3.org/1999/xlink" x="0px" y="0px"
	 width="20px" height="20px" viewBox="0 0 20 20" enable-background="new 0 0 20 20" xml:space="preserve">
<path fill-rule="evenodd" clip-rule="evenodd" fill="#292929" d="M3.93,2.371h6.929c2.28,0,4.221,1.117,4.219,3.375
	c-0.002,1.886-0.685,2.619-2.087,3.449c0.12,0.099,0.924,0.339,1.194,0.472c0.432,0.213,0.687,0.428,0.971,0.717
	c0.796,0.809,0.944,1.549,0.944,2.818c0,2.945-2.849,4.426-5.592,4.426H3.901L3.93,2.371L3.93,2.371z M7.695,6.38l0,1.981
	c1.785,0,3.462,0.235,3.462-1.7c0-1.791-1.897-1.496-3.463-1.496L7.695,6.38L7.695,6.38z M7.694,14.82
	c1.955,0,4.371,0.322,4.414-1.898c0.044-2.316-2.482-1.898-4.413-1.898L7.694,14.82L7.694,14.82z"/>
</svg>
